<svg width="683" height="683" viewBox="0 0 683 683" fill="none" xmlns="http://www.w3.org/2000/svg">
<path d="M317.867 1.33333C206.533 9.46666 107.6 69.8667 49.7332 165.2C2.26654 243.333 -11.4668 338.133 11.8665 428.267C23.0665 471.733 47.0665 518.8 76.9332 556C89.3332 571.6 114.133 595.867 130.8 608.933C180.533 647.733 240.133 672.267 302.133 679.467C327.467 682.4 372.4 681.467 395.867 677.467C540.8 652.667 651.6 542.8 676.933 398.667C681.467 372.533 682.667 329.333 679.467 302.133C672.133 238.8 646.133 176.8 605.733 126.667C557.067 66.1333 482.933 21.4667 406.533 6.8C379.467 1.6 343.867 -0.533336 317.867 1.33333ZM384.667 126.667C404.133 130.8 423.867 137.867 441.333 146.8C500.8 177.6 541.733 231.733 556.267 298.667C558.8 310.8 559.2 316.533 559.2 341.333C559.2 366 558.8 371.867 556.267 383.6C549.6 414.267 536.133 445.333 519.067 469.333C507.467 485.467 485.467 507.467 469.333 519.067C454.4 529.733 426.8 543.733 410 549.2C384.933 557.467 372.8 559.2 341.333 559.2C316.533 559.2 310.8 558.8 298.667 556.267C210.267 537.067 145.6 472.4 126.4 384C123.867 371.867 123.467 366.133 123.467 341.333C123.467 316.533 123.867 310.8 126.4 298.667C140.8 232.4 181.733 177.867 240 147.467C262.4 135.867 283.6 128.8 309.2 124.667C326.4 121.867 367.2 122.933 384.667 126.667Z" fill="#588800"/>
<path d="M336.933 186.667C328.267 189.2 323.733 197.733 323.6 211.2C323.6 222.533 326.4 232.933 333.467 246.933C340.4 260.533 342.267 260.667 349.067 247.333C358.267 228.933 361.2 209.067 356.533 197.333C353.2 188.933 344.8 184.4 336.933 186.667Z" fill="#588800"/>
<path d="M235.067 228.8C230.667 231.067 226.667 237.6 226.667 242.933C226.8 256 245.6 272.533 269.733 280.533C277.867 283.2 281.2 283.2 282.267 280.4C284.533 274.533 272.533 247.867 263.2 238.133C256.933 231.467 248.267 226.667 242.667 226.667C240.8 226.667 237.467 227.733 235.067 228.8Z" fill="#588800"/>
<path d="M431.067 229.2C428 230.667 422.8 234.667 419.467 238.133C410.133 247.867 398.133 274.667 400.533 280.667C401.733 283.867 407.733 283.067 419.6 278.133C441.6 269.067 456 254.933 456 242.4C456 237.467 451.867 230.933 447.333 228.8C441.6 226 437.867 226.133 431.067 229.2Z" fill="#588800"/>
<path d="M328.667 297.733C319.733 300.8 315.467 303.467 308.8 310.533C299.467 320.667 296.667 327.6 296.667 341.333C296.667 351.067 297.2 353.733 300.4 360.267C305.733 371.2 316.4 380.533 327.6 384C338.667 387.333 344.133 387.333 355.467 383.867C363.067 381.467 365.733 379.733 372.8 372.8C379.733 365.733 381.467 363.067 383.867 355.467C387.333 344.133 387.333 338.667 384 327.6C380.533 316.533 371.2 305.733 360.533 300.533C351.733 296.267 337.067 294.933 328.667 297.733Z" fill="#588800"/>
<path d="M206 323.467C192.8 326.533 186.267 332.4 186.267 341.333C186.267 352.267 195.733 358.667 211.733 358.667C222.4 358.667 231.467 356.267 245.6 349.733C261.2 342.533 260.933 340.133 244.267 332.267C229.067 325.2 214 321.733 206 323.467Z" fill="#588800"/>
<path d="M464.666 323.6C456.533 324.667 445.866 328.4 435.733 333.467C422.266 340.267 422 342.267 434.4 348.533C459.866 361.333 485.2 362.133 493.466 350.4C496.933 345.467 497.2 337.467 494.133 332.533C490 326.4 475.466 322 464.666 323.6Z" fill="#588800"/>
<path d="M263.333 404.4C257.466 406.8 250.133 410.4 246.933 412.4C228.666 424.133 221.733 441.467 231.466 451.2C245.6 465.2 270.266 445.467 280.666 411.867C282 407.733 282.666 403.333 282.266 402.133C280.933 398.933 275.2 399.6 263.333 404.4Z" fill="#588800"/>
<path d="M400.4 402.267C398 408.533 410.133 435.067 420 445.067C431.2 456.4 443.466 458.8 451.2 451.2C458.666 443.733 456.533 431.333 445.866 420.8C438.8 413.6 429.333 408.133 416.266 403.467C404.933 399.467 401.6 399.2 400.4 402.267Z" fill="#588800"/>
<path d="M336.4 429.6C335.2 432 332.8 436.933 331.067 440.533C317.733 468.533 322.933 496.4 341.333 496.4C361.067 496.4 364.533 466.267 348.533 434.267C343.2 423.867 340.133 422.667 336.4 429.6Z" fill="#588800"/>
</svg>
